<svg xmlns="http://www.w3.org/2000/svg" viewBox="0 0 1732.02 1640">
  <defs>
    <style>
      .cls-1 {
        fill: #348888;
      }

      .cls-2 {
        fill: #fa7f08;
      }

      .cls-3 {
        fill: #9ef8ee;
      }

      .cls-4 {
        fill: #f24405;
      }

      .cls-4, .cls-5 {
        stroke: #22babb;
        stroke-miterlimit: 10;
        stroke-width: 25px;
      }

      .cls-5 {
        fill: #22babb;
      }
    </style>
  </defs>
  <g>
    <g>
      <path class="cls-1" d="M980.74,280c397.64,0,720,322.35,720,720s-322.36,720-720,720-720-322.35-720-720,322.35-720,720-720m0-100a825,825,0,0,0-165.15,16.66A816,816,0,0,0,522.2,320.1a822.06,822.06,0,0,0-297,360.69A816.24,816.24,0,0,0,177.4,834.85a826.89,826.89,0,0,0,0,330.3,816,816,0,0,0,123.44,293.39,822.06,822.06,0,0,0,360.69,297,816.24,816.24,0,0,0,154.06,47.82,826.89,826.89,0,0,0,330.3,0,816,816,0,0,0,293.39-123.44,822.06,822.06,0,0,0,297-360.69,816.24,816.24,0,0,0,47.82-154.06,826.89,826.89,0,0,0,0-330.3,816,816,0,0,0-123.44-293.39,822.06,822.06,0,0,0-360.69-297,816.24,816.24,0,0,0-154.06-47.82A825.05,825.05,0,0,0,980.74,180Z" transform="translate(-160.74 -180)"/>
      <g>
        <path class="cls-2" d="M980.1,1000.64V280h.64c198.82,0,378.83,80.59,509.12,210.88Z" transform="translate(-160.74 -180)"/>
        <path class="cls-3" d="M980.1,1000.64,471,491.52C601.19,361,781.21,280.18,980.1,280Z" transform="translate(-160.74 -180)"/>
        <path class="cls-2" d="M980.1,1000.64H260.74V1000c0-198.51,80.33-378.25,210.24-508.48Z" transform="translate(-160.74 -180)"/>
        <path class="cls-3" d="M471.62,1509.12C341.46,1379,260.92,1199.21,260.74,1000.64H980.1Z" transform="translate(-160.74 -180)"/>
        <path class="cls-2" d="M980.1,1720c-198.57-.18-378.32-80.72-508.48-210.88L980.1,1000.64Z" transform="translate(-160.74 -180)"/>
        <path class="cls-3" d="M980.74,1720h-.64V1000.64l509.12,509.11C1359,1639.67,1179.24,1720,980.74,1720Z" transform="translate(-160.74 -180)"/>
        <path class="cls-2" d="M1489.22,1509.75,980.1,1000.64h720.64C1700.56,1199.52,1619.75,1379.54,1489.22,1509.75Z" transform="translate(-160.74 -180)"/>
        <path class="cls-3" d="M1700.74,1000.64H980.1l509.76-509.76c130.28,130.29,210.88,310.3,210.88,509.12Z" transform="translate(-160.74 -180)"/>
      </g>
      <circle class="cls-4" cx="827.64" cy="821.27" r="142.6"/>
    </g>
    <polygon class="cls-5" points="1360.14 820.52 1719.52 919.96 1719.52 721.09 1360.14 820.52"/>
  </g>
</svg>
