<svg xmlns="http://www.w3.org/2000/svg" viewBox="8 8 48 48" fill="#fff" >
    <path d="M 24 10 C 20.69 10 18 12.69 18 16 L 18 18 L 17 18 C 13.691 18 11 20.691 11 24 L 11 48 C 11 51.309 13.691 54 17 54 L 41 54 C 44.309 54 47 51.309 47 48 L 47 47 L 49 47 C 52.31 47 55 44.31 55 41 L 55 16 C 55 12.69 52.31 10 49 10 L 24 10 z M 24 14 L 49 14 C 50.1 14 51 14.9 51 16 L 51 41 C 51 42.1 50.1 43 49 43 L 47 43 L 47 24 C 47 20.691 44.309 18 41 18 L 22 18 L 22 16 C 22 14.9 22.9 14 24 14 z M 17 22 L 41 22 C 42.103 22 43 22.897 43 24 L 43 48 C 43 49.103 42.103 50 41 50 L 17 50 C 15.897 50 15 49.103 15 48 L 15 24 C 15 22.897 15.897 22 17 22 z M 33.324219 25.001953 C 31.615469 25.001953 29.904609 25.655938 28.599609 26.960938 L 26 29.550781 C 24.7 30.860781 24.050781 32.559297 24.050781 34.279297 C 24.050781 35.979297 24.7 37.7 26 39 C 26.965618 39.958247 28.148683 40.56059 29.384766 40.8125 L 27.273438 42.923828 C 25.026438 45.167828 21.852078 43.144922 22.080078 42.919922 C 20.640078 41.489922 20.640078 39.160469 22.080078 37.730469 L 22.539062 37.269531 C 22.189062 36.339531 22 35.339062 22 34.289062 C 22 34.029063 22.010297 33.769531 22.029297 33.519531 C 21.959297 33.590531 21.925375 33.624406 21.859375 33.691406 L 19.958984 35.599609 C 17.348984 38.209609 17.347031 42.442969 19.957031 45.042969 C 21.258031 46.343969 22.964828 46.996094 24.673828 46.996094 C 26.383828 46.996094 28.092531 46.345922 29.394531 45.044922 L 31.994141 42.445312 C 34.596141 39.843312 34.596141 35.608859 31.994141 33.005859 C 32.071959 32.928041 30.69641 31.644355 28.599609 31.210938 L 30.730469 29.080078 C 32.160469 27.650078 34.489922 27.640078 35.919922 29.080078 C 37.359922 30.510078 37.359922 32.839531 35.919922 34.269531 L 35.460938 34.730469 C 35.810937 35.660469 36 36.660938 36 37.710938 C 36 37.970938 35.990703 38.230469 35.970703 38.480469 C 36.041703 38.409469 36.051516 38.398703 36.103516 38.345703 L 38.039062 36.400391 C 40.649062 33.790391 40.649062 29.560938 38.039062 26.960938 C 36.739063 25.655938 35.032969 25.001953 33.324219 25.001953 z M 27.269531 34.023438 C 28.831922 34.026906 29.798047 35.201953 29.873047 35.126953 C 30.642768 35.896137 30.986861 36.923609 30.929688 37.933594 C 29.924306 37.989203 28.900453 37.638734 28.130859 36.869141 C 27.349172 36.092881 27.007246 35.0539 27.074219 34.035156 C 27.13934 34.031308 27.20634 34.023297 27.269531 34.023438 z"/>
</svg>
