<svg xmlns="http://www.w3.org/2000/svg" viewBox="700 700 2600 2600" fill="#fff" >
    <path d="M2000,3300c716.777,0,1300-583.223,1300-1300S2716.777,700,2000,700S700,1283.223,700,2000 S1283.223,3300,2000,3300z M2000,960c573.447,0,1040,466.553,1040,1040s-466.553,1040-1040,1040S960,2573.447,960,2000 S1426.553,960,2000,960z"/>
    <path d="M2000,2780c71.792,0,130-58.271,130-130v-780c0-71.792-58.208-130-130-130s-130,58.208-130,130v780 C1870,2721.729,1928.208,2780,2000,2780z"/>
    <circle cx="2000" cy="1350" r="130" />
</svg>
