<?xml version="1.0" encoding="UTF-8"?>
<svg xmlns="http://www.w3.org/2000/svg" viewBox="0 0 197.3627 60.80619" width="197.3627" height="60.80619">
  <defs>
    <style>
      .cls-1 {
        fill: #348888;
      }

      .cls-2 {
        fill: #fa7f08;
      }

      .cls-3 {
        fill: #9ef8ee;
      }

      .cls-4 {
        fill: #f24405;
      }

      .cls-4,
      .cls-5 {
        stroke: #22babb;
        stroke-miterlimit: 10;
        stroke-width: 25px;
      }

      .cls-5 {
        fill: #22babb;
      }
    </style>
  </defs>
  <g transform="matrix(3.624448,0,0,3.624448,-23.886468,-22.330202)" fill="#fff">
    <path d="m 21.740662,18.751712 q 0,1.719231 -1.10878,2.952594 -1.096322,1.233363 -3.06472,1.233363 -1.980855,0 -3.039803,-1.233363 -1.058946,-1.233363 -1.058946,-2.927679 0,-1.769064 1.121236,-2.977512 1.121241,-1.208445 3.027346,-1.208445 1.94348,0 3.027345,1.233363 1.096322,1.220903 1.096322,2.927679 z m -1.80644,0.04983 q 0,-1.295653 -0.597993,-2.018231 -0.597994,-0.722574 -1.731692,-0.722574 -1.208445,0 -1.769066,0.772407 -0.560619,0.75995 -0.560619,1.906105 0,1.108782 0.548161,1.918565 0.548161,0.809783 1.831357,0.809783 1.18353,0 1.731691,-0.735035 0.548161,-0.747492 0.548161,-1.93102 z" />
    <path d="m 32.988221,16.135487 h -1.052739 v 6.677599 l -1.127935,0.01243 -5.248652,-5.145239 h -0.06016 v 3.712547 h 1.353522 v 1.420234 h -4.286151 v -1.420234 h 1.05274 V 16.13546 h -1.218164 v -1.420207 h 2.661924 l 4.932831,4.808867 h 0.06016 v -3.388632 h -1.413683 v -1.420235 h 4.346307 z" />
    <path d="m 41.319897,22.813086 h -7.339092 v -1.420234 h 1.05274 v -5.257365 h -1.05274 v -1.420235 h 4.436539 v 1.420235 h -1.368561 v 5.257365 h 2.556651 l 0.300783,-1.569736 1.714463,0.124576 z" />
    <path d="m 46.493361,22.813086 h -4.120719 v -1.420234 h 1.052739 v -5.257365 h -1.052739 v -1.420235 h 4.120719 v 1.420235 h -1.052739 v 5.257365 h 1.052739 z" />
    <path d="M 12.919143,8.7283758 11.498907,8.8529578 11.249743,7.65697 H 9.1318482 V 9.9243636 H 12.532938 V 11.332141 H 9.1318482 v 1.582192 h 1.3205698 v 1.420235 H 6.5903741 V 12.914333 H 7.4624485 V 7.65697 H 6.5903741 V 6.2367348 h 6.0796049 z" />
    <path d="m 29.700342,14.334568 h -2.068063 l -1.607108,-3.089635 h -1.096322 v 1.6694 h 0.872073 v 1.420235 h -3.413547 v -1.420235 h 0.872073 V 7.65697 H 22.387375 V 6.2367348 h 3.662711 q 1.507445,0 2.317228,0.6229103 0.809782,0.610452 0.809782,1.8313562 0,0.8222416 -0.423577,1.3828607 -0.423581,0.548161 -1.12124,0.822242 l 1.096322,2.018229 h 0.971741 z M 27.383115,8.7283758 q 0,-0.610452 -0.361288,-0.8346997 Q 26.66054,7.6569696 25.751089,7.6569696 h -0.82224 v 2.2673935 h 0.797325 q 0.959281,0 1.308111,-0.311455 0.34883,-0.3114553 0.34883,-0.8845323 z" />
    <path d="M 37.586398,8.9775399 36.166164,9.1021208 35.917,7.6569688 h -1.283196 v 5.2573632 h 1.320571 v 1.420236 h -4.23579 v -1.420235 h 1.245821 V 7.65697 H 31.68121 L 31.432046,9.102122 30.011809,8.9775411 30.260973,6.236736 h 7.076261 z" />
    <path d="m 46.481571,7.65697 h -0.722577 v 3.326341 q 0,0.859616 -0.323913,1.656941 -0.323914,0.797326 -1.083864,1.308112 -0.75995,0.510786 -2.055604,0.510786 -1.843814,0 -2.603764,-1.009114 -0.75995,-1.021573 -0.75995,-2.329685 V 7.65697 H 38.209322 V 6.2367348 h 3.338799 V 7.65697 h -0.946824 v 3.413549 q 0,0.834699 0.398663,1.38286 0.41112,0.535703 1.382861,0.535703 0.959282,0 1.38286,-0.548161 0.436037,-0.548161 0.436037,-1.45761 V 7.65697 H 43.254895 V 6.2367348 h 3.226676 z" />
    <path d="M 54.665985,9.1344671 H 53.906752 V 22.816537 l -0.813463,0.02553 -3.785316,-10.54234 h -0.04338 v 7.606822 h 0.976156 v 2.909998 H 47.149587 V 19.906556 H 47.90882 V 9.1344671 H 47.030277 V 6.2244748 h 1.919772 l 3.557546,9.8531322 h 0.04338 V 9.1344671 H 51.531439 V 6.2244748 h 3.134546 z" />
    <path d="m 60.826617,22.816537 h -5.444783 v -2.909991 h 0.759233 V 9.1344671 H 55.381834 V 6.2244748 h 5.379706 l 0.216932,4.8499872 -1.236463,0.255263 -0.216932,-2.1952572 h -1.930621 v 3.9055162 h 2.971854 v 2.884467 h -2.971854 v 3.982095 h 1.995698 l 0.216933,-2.195257 1.236463,0.255261 z" />
    <g transform="matrix(0.00501256,0,0,0.00508527,13.532285,6.1609941)">
      <g>
        <path class="cls-1"
          d="m 980.74,280 c 397.64,0 720,322.35 720,720 0,397.65 -322.36,720 -720,720 -397.64,0 -720,-322.35 -720,-720 0,-397.65 322.35,-720 720,-720 m 0,-100 A 825,825 0 0 0 815.59,196.66 816,816 0 0 0 522.2,320.1 a 822.06,822.06 0 0 0 -297,360.69 816.24,816.24 0 0 0 -47.8,154.06 826.89,826.89 0 0 0 0,330.3 816,816 0 0 0 123.44,293.39 822.06,822.06 0 0 0 360.69,297 816.24,816.24 0 0 0 154.06,47.82 826.89,826.89 0 0 0 330.3,0 816,816 0 0 0 293.39,-123.44 822.06,822.06 0 0 0 297,-360.69 816.24,816.24 0 0 0 47.82,-154.06 826.89,826.89 0 0 0 0,-330.3 816,816 0 0 0 -123.44,-293.39 822.06,822.06 0 0 0 -360.69,-297 A 816.24,816.24 0 0 0 1145.91,196.66 825.05,825.05 0 0 0 980.74,180 Z"
          transform="translate(-160.74,-180)" />
        <g>
          <path class="cls-2" d="M 980.1,1000.64 V 280 h 0.64 c 198.82,0 378.83,80.59 509.12,210.88 z"
            transform="translate(-160.74,-180)" />
          <path class="cls-3" d="M 980.1,1000.64 471,491.52 C 601.19,361 781.21,280.18 980.1,280 Z"
            transform="translate(-160.74,-180)" />
          <path class="cls-2" d="M 980.1,1000.64 H 260.74 V 1000 c 0,-198.51 80.33,-378.25 210.24,-508.48 z"
            transform="translate(-160.74,-180)" />
          <path class="cls-3" d="M 471.62,1509.12 C 341.46,1379 260.92,1199.21 260.74,1000.64 H 980.1 Z"
            transform="translate(-160.74,-180)" />
          <path class="cls-2" d="M 980.1,1720 C 781.53,1719.82 601.78,1639.28 471.62,1509.12 L 980.1,1000.64 Z"
            transform="translate(-160.74,-180)" />
          <path class="cls-3"
            d="m 980.74,1720 h -0.64 v -719.36 l 509.12,509.11 C 1359,1639.67 1179.24,1720 980.74,1720 Z"
            transform="translate(-160.74,-180)" />
          <path class="cls-2" d="M 1489.22,1509.75 980.1,1000.64 h 720.64 c -0.18,198.88 -80.99,378.9 -211.52,509.11 z"
            transform="translate(-160.74,-180)" />
          <path class="cls-3"
            d="M 1700.74,1000.64 H 980.1 l 509.76,-509.76 c 130.28,130.29 210.88,310.3 210.88,509.12 z"
            transform="translate(-160.74,-180)" />
        </g>
        <circle class="cls-4" cx="827.64001" cy="821.27002" r="142.60001" />
      </g>
    </g>
  </g>
</svg>
