<svg fill="#fff" viewBox="0 0 1024 1024" xmlns="http://www.w3.org/2000/svg">
    <path stroke="transporent" d="M837.818182 93.090909H642.327273c-18.618182-55.854545-69.818182-93.090909-130.327273-93.090909-60.509091 0-111.709091 37.236364-130.327273 93.090909H186.181818c-51.2 0-93.090909 41.890909-93.090909 93.090909v744.727273c0 51.2 41.890909 93.090909 93.090909 93.090909h651.636364c51.2 0 93.090909-41.890909 93.090909-93.090909V186.181818c0-51.2-41.890909-93.090909-93.090909-93.090909z m-325.818182 0c27.927273 0 46.545455 18.618182 46.545455 46.545455S539.927273 186.181818 512 186.181818 465.454545 167.563636 465.454545 139.636364 484.072727 93.090909 512 93.090909zM837.818182 930.909091H186.181818V186.181818h93.090909v139.636364h465.454546V186.181818h93.090909v744.727273z" />
</svg>
